<?xml version="1.0" encoding="UTF-8"?>
<svg id="SVGDoc" width="31" height="36" xmlns="http://www.w3.org/2000/svg" version="1.1" xmlns:xlink="http://www.w3.org/1999/xlink" xmlns:avocode="https://avocode.com/" viewBox="0 0 31 36"><defs></defs><desc>Generated with Avocode.</desc><g><g><title>Grupo 8</title><g><title>Trazado 159</title><path d="M2.84785,11.46819c-0.60743,0 -1.12281,0.21182 -1.54647,0.6355c-0.42365,0.42365 -0.63555,0.93204 -0.63555,1.52533v9.1102c0,0.60822 0.21183,1.12314 0.63555,1.54684c0.42366,0.42365 0.93904,0.63556 1.54647,0.63556c0.60699,0 1.11925,-0.21185 1.53634,-0.63556c0.41625,-0.42365 0.62496,-0.93863 0.62496,-1.54684v-9.1102c0,-0.59338 -0.21183,-1.10168 -0.63556,-1.52533c-0.42372,-0.42368 -0.9324,-0.6355 -1.52575,-0.6355z" fill="#6cc57c" fill-opacity="1"></path></g><g><title>Trazado 160</title><path d="M20.62344,7.32623c-0.15561,0.16306 -0.34642,0.24421 -0.57187,0.24421c-0.22638,0 -0.42061,-0.08115 -0.58298,-0.24421c-0.1626,-0.1623 -0.24376,-0.35583 -0.24376,-0.58245c0,-0.22585 0.08116,-0.41977 0.24376,-0.58245c0.16237,-0.1623 0.3566,-0.24345 0.58298,-0.24345c0.22585,0 0.41618,0.08115 0.57187,0.24345c0.1554,0.16306 0.23293,0.35659 0.23293,0.58245c0,0.22623 -0.07761,0.42015 -0.23293,0.58245zM11.69353,7.32623c-0.16267,0.16306 -0.35699,0.24421 -0.58283,0.24421c-0.22627,0 -0.41663,-0.08115 -0.57191,-0.24421c-0.1553,-0.1623 -0.23296,-0.35583 -0.23296,-0.58245c0,-0.22585 0.07766,-0.41977 0.23296,-0.58245c0.15528,-0.1623 0.34608,-0.24345 0.57191,-0.24345c0.22584,0 0.42016,0.08115 0.58283,0.24345c0.16231,0.16306 0.24382,0.35659 0.24382,0.58245c-0.00044,0.22623 -0.08192,0.42015 -0.24382,0.58245zM20.39056,3.28997l1.50429,-2.77498c0.09872,-0.18372 0.06361,-0.32459 -0.1057,-0.42365c-0.18379,-0.08542 -0.32497,-0.04214 -0.42368,0.12679l-1.5253,2.79716c-1.34216,-0.59341 -2.7617,-0.89066 -4.25865,-0.89066c-1.49725,0 -2.91695,0.29731 -4.25861,0.89066l-1.52537,-2.79716c-0.09914,-0.16893 -0.2403,-0.21183 -0.42366,-0.12679c-0.16969,0.09951 -0.2048,0.23994 -0.10567,0.42365l1.50433,2.77498c-1.52536,0.77789 -2.74023,1.86125 -3.64416,3.25244c-0.90391,1.39195 -1.35606,2.91305 -1.35606,4.56598h19.59711c0,-1.65254 -0.45221,-3.17371 -1.35608,-4.56598c-0.90398,-1.39119 -2.11183,-2.47455 -3.62279,-3.25244z" fill="#6cc57c" fill-opacity="1"></path></g><g><title>Trazado 161</title><path d="M5.85645,25.98077c0,0.65033 0.22585,1.20085 0.67761,1.65262c0.45215,0.45175 1.00266,0.67758 1.65253,0.67758h1.5679v0l0.02148,4.80989c0,0.60736 0.21182,1.12312 0.63548,1.54684c0.42365,0.42372 0.9324,0.63557 1.52536,0.63557c0.60706,0 1.12277,-0.21185 1.54648,-0.63557c0.42371,-0.42372 0.63556,-0.93942 0.63556,-1.54684v-4.80943v0h2.92361v0v4.80943c0,0.60736 0.21176,1.12312 0.63548,1.54684c0.42371,0.42372 0.93898,0.63557 1.54649,0.63557c0.60704,0 1.12274,-0.21185 1.54645,-0.63557c0.42372,-0.42372 0.63551,-0.93942 0.63551,-1.54684v-4.80943v0h1.58904c0.63548,0 1.17889,-0.22592 1.6315,-0.67767c0.45171,-0.45177 0.67769,-1.00226 0.67769,-1.65254v-14.11084v0h-19.44818v0z" fill="#6cc57c" fill-opacity="1"></path></g><g><title>Trazado 162</title><path d="M28.3143,11.46819c-0.59341,0 -1.10168,0.20871 -1.52536,0.62494c-0.42368,0.41702 -0.63553,0.92932 -0.63553,1.53589v9.1102c0,0.60822 0.21173,1.12314 0.63553,1.54684c0.42368,0.42371 0.93237,0.63556 1.52536,0.63556c0.60706,0 1.12274,-0.21185 1.54651,-0.63556c0.42374,-0.42371 0.63541,-0.93863 0.63541,-1.54684v-9.1102c0,-0.60663 -0.21167,-1.11887 -0.63541,-1.53589c-0.42377,-0.41623 -0.93945,-0.62494 -1.54651,-0.62494z" fill="#6cc57c" fill-opacity="1"></path></g></g></g></svg>