<svg xmlns="http://www.w3.org/2000/svg" width="31" height="36" viewBox="0 0 31 36"><g><g><g><path fill="#6cc57c" d="M2.848 11.468c-.608 0-1.123.212-1.547.636a2.08 2.08 0 0 0-.635 1.525v9.11c0 .608.212 1.123.635 1.547.424.424.94.636 1.547.636s1.12-.212 1.536-.636c.416-.424.625-.939.625-1.547v-9.11a2.08 2.08 0 0 0-.635-1.525 2.081 2.081 0 0 0-1.526-.636z"/></g><g><path fill="#6cc57c" d="M20.623 7.326a.76.76 0 0 1-.571.244.793.793 0 0 1-.583-.244.793.793 0 0 1-.244-.582c0-.226.081-.42.244-.583a.795.795 0 0 1 .583-.243c.225 0 .416.081.571.243a.814.814 0 0 1 .233.583c0 .226-.077.42-.233.582zm-8.93 0a.794.794 0 0 1-.582.244.758.758 0 0 1-.572-.244.812.812 0 0 1-.233-.582c0-.226.077-.42.233-.583a.76.76 0 0 1 .572-.243c.226 0 .42.081.583.243a.797.797 0 0 1 .243.583c0 .226-.082.42-.243.582zm8.698-4.036L21.895.515c.099-.184.063-.325-.106-.424-.184-.085-.325-.042-.424.127L19.84 3.015a10.416 10.416 0 0 0-4.258-.89c-1.498 0-2.917.297-4.26.89L9.799.218c-.1-.169-.24-.212-.424-.127-.17.1-.205.24-.106.424l1.505 2.775c-1.526.778-2.74 1.861-3.645 3.252a8.215 8.215 0 0 0-1.356 4.566H25.37a8.217 8.217 0 0 0-1.356-4.566c-.904-1.39-2.111-2.474-3.622-3.252z"/></g><g><path fill="#6cc57c" d="M5.856 25.98c0 .651.226 1.202.678 1.653a2.25 2.25 0 0 0 1.653.678h1.567l.022 4.81c0 .607.212 1.123.635 1.547a2.08 2.08 0 0 0 1.526.635c.607 0 1.123-.212 1.546-.635.424-.424.636-.94.636-1.547v-4.81h2.923v4.81c0 .607.212 1.123.636 1.547.424.423.939.635 1.546.635.607 0 1.123-.212 1.547-.635.424-.424.635-.94.635-1.547v-4.81h1.59c.635 0 1.178-.225 1.63-.677a2.248 2.248 0 0 0 .679-1.653v-14.11H5.856z"/></g><g><path fill="#6cc57c" d="M28.314 11.468a2.1 2.1 0 0 0-1.525.625c-.424.417-.636.93-.636 1.536v9.11c0 .608.212 1.123.636 1.547a2.08 2.08 0 0 0 1.525.636c.607 0 1.123-.212 1.547-.636.424-.424.635-.939.635-1.547v-9.11c0-.607-.211-1.119-.635-1.536a2.125 2.125 0 0 0-1.547-.625z"/></g></g></g></svg>