<svg id="SvgjsSvg101818" width="32" height="40" xmlns="http://www.w3.org/2000/svg" version="1.1" xmlns:xlink="http://www.w3.org/1999/xlink" xmlns:svgjs="http://svgjs.com/svgjs" viewBox="541 753 32 40"><defs id="SvgjsDefs101819"></defs><svg id="SvgjsSvg101820" width="32" height="31" xmlns="http://www.w3.org/2000/svg" version="1.1" xmlns:xlink="http://www.w3.org/1999/xlink" xmlns:svgjs="http://svgjs.com/svgjs" viewBox="0 0 32 31" fill="#23233c" opacity="1" x="541" y="762"><defs id="SvgjsDefs101821"></defs><svg version="1.1" xmlns="http://www.w3.org/2000/svg" xmlns:xlink="http://www.w3.org/1999/xlink" width="32" height="31"><g><path fill="#23233c" stroke="none" paint-order="stroke fill markers" fill-rule="evenodd" d=" M 10.447888851165771 29.999995708465576 C 4.752271890640259 29.966915130615234 0.04105424880981445 18.34043312072754 0.04105424880981445 12.419307708740234 C 0.04105424880981445 2.7472620010375977 7.2968080043792725 0.6298069953918457 10.093103885650635 0.6298069953918457 C 11.353335618972778 0.6298069953918457 12.698967933654785 1.124525547027588 13.885692119598389 1.562619686126709 C 14.715768575668335 1.868093490600586 15.574073076248169 2.1834020614624023 16.05151391029358 2.1834020614624023 C 16.337233304977417 2.1834020614624023 17.01055097579956 1.9151811599731445 17.605059385299683 1.6797428131103516 C 18.87302875518799 1.174891471862793 20.45064687728882 0.5478506088256836 22.2879056930542 0.5478506088256836 C 22.29120135307312 0.5478506088256836 22.29550004005432 0.5478506088256836 22.298795700073242 0.5478506088256836 C 23.670650005340576 0.5478506088256836 27.83005952835083 0.8488540649414062 30.330749034881592 4.604244709014893 C 30.330749034881592 4.604244709014893 30.91651678085327 5.484307289123535 30.91651678085327 5.484307289123535 C 30.91651678085327 5.484307289123535 30.07354426383972 6.12058687210083 30.07354426383972 6.12058687210083 C 28.869195461273193 7.02925968170166 26.671706676483154 8.686864852905273 26.671706676483154 11.970484733581543 C 26.671706676483154 15.859389781951904 29.160359859466553 17.355168342590332 30.35596799850464 18.074596405029297 C 30.883703470230103 18.391991138458252 31.43006658554077 18.719518661499023 31.43006658554077 19.435370445251465 C 31.43006658554077 19.902968883514404 27.698662996292114 29.94188117980957 22.280168056488037 29.94188117980957 C 20.954309701919556 29.94188117980957 20.01705265045166 29.543424129486084 19.190415143966675 29.19175672531128 C 18.353890657424927 28.835916996002197 17.63242769241333 28.52954912185669 16.440115213394165 28.52954912185669 C 15.83571982383728 28.52954912185669 15.071413278579712 28.815353393554688 14.262257099151611 29.11844301223755 C 13.15663480758667 29.53120517730713 11.905143737792969 29.999995708465576 10.485144138336182 29.999995708465576 C 10.485144138336182 29.999995708465576 10.447888851165771 29.999995708465576 10.447888851165771 29.999995708465576 Z"></path></g></svg></svg><svg id="SvgjsSvg101824" width="8" height="10" xmlns="http://www.w3.org/2000/svg" version="1.1" xmlns:xlink="http://www.w3.org/1999/xlink" xmlns:svgjs="http://svgjs.com/svgjs" viewBox="0 0 8 10" fill="#23233c" opacity="1" x="556" y="753"><defs id="SvgjsDefs101825"></defs><svg version="1.1" xmlns="http://www.w3.org/2000/svg" xmlns:xlink="http://www.w3.org/1999/xlink" width="8" height="10"><g><path fill="#23233c" stroke="none" paint-order="stroke fill markers" fill-rule="evenodd" d=" M 7.861923694610596 0.7311315536499023 C 8.002920627593994 5.819282054901123 4.364082098007202 9.349367141723633 0.7293989658355713 9.127935886383057 C 0.13059186935424805 5.06736946105957 4.363652229309082 0.7311315536499023 7.861923694610596 0.7311315536499023 Z"></path></g></svg></svg></svg>