<?xml version="1.0" encoding="UTF-8"?>
<svg id="SVGDoc" width="32" height="39" xmlns="http://www.w3.org/2000/svg" version="1.1" xmlns:xlink="http://www.w3.org/1999/xlink" xmlns:avocode="https://avocode.com/" viewBox="0 0 32 39"><defs></defs><desc>Generated with Avocode.</desc><g><g><title>apple</title><g><title>Trazado 157</title><path d="M10.44793,39.00001c-5.69554,-0.03281 -10.40679,-11.65935 -10.40679,-17.58044c0,-9.67215 7.25574,-11.78964 10.05205,-11.78964c1.26018,0 2.60579,0.49487 3.79264,0.9328c0.82996,0.30548 1.68831,0.62083 2.1657,0.62083c0.28574,0 0.95911,-0.26826 1.55362,-0.50362c1.26788,-0.50475 2.84557,-1.13207 4.68277,-1.13207c0.00329,0 0.0077,0 0.01092,0c1.37185,0 5.53133,0.30106 8.03204,4.05649l0.58575,0.88025v0l-0.84304,0.63614c-1.20433,0.90875 -3.40179,2.56642 -3.40179,5.84998c0,3.88896 2.48865,5.3846 3.68427,6.10396c0.52776,0.3175 1.07406,0.6449 1.07406,1.3609c0,0.46756 -3.73135,10.50644 -9.14989,10.50644c-1.32588,0 -2.26309,-0.39853 -3.08976,-0.74997c-0.83646,-0.35585 -1.55803,-0.66241 -2.75034,-0.66241c-0.60439,0 -1.36864,0.28578 -2.17774,0.58908c-1.10568,0.41269 -2.35719,0.8813 -3.77724,0.8813z" fill="#23233c" fill-opacity="1"></path></g><g><title>Trazado 158</title><path d="M22.86194,0.73126c0.14111,5.08824 -3.49777,8.61824 -7.13243,8.39684" fill="#23233c" fill-opacity="1"></path></g></g></g></svg>