<svg xmlns="http://www.w3.org/2000/svg" width="83" height="83" viewBox="0 0 83 83"><g><g><g><path fill="#dcebf5" d="M6.035 41.462c0-19.45 15.767-35.216 35.216-35.216 19.45 0 35.216 15.766 35.216 35.216 0 19.449-15.766 35.216-35.216 35.216-19.449 0-35.216-15.767-35.216-35.216zm76.205 0C82.24 18.824 63.89.472 41.251.472 18.614.473.262 18.825.262 41.463c0 22.637 18.352 40.989 40.99 40.989 22.637 0 40.988-18.352 40.988-40.99z"/></g><g><path fill="#6cc57c" d="M60.095 71.217c9.84-6.245 16.372-17.238 16.372-29.756 0-19.449-15.767-35.216-35.216-35.216a35.078 35.078 0 0 0-23.07 8.61l-3.454-4.645A40.827 40.827 0 0 1 41.251.473c22.638 0 40.99 18.351 40.99 40.988 0 14.416-7.441 27.093-18.692 34.4z"/></g></g></g></svg>