<?xml version="1.0" encoding="UTF-8"?>
<svg id="SVGDoc" width="1503" height="372" xmlns="http://www.w3.org/2000/svg" version="1.1" xmlns:xlink="http://www.w3.org/1999/xlink" xmlns:avocode="https://avocode.com/" viewBox="0 0 1503 372"><defs></defs><desc>Generated with Avocode.</desc><g><g><title>Grupo 16136</title><g><title>Grupo 16135</title><g><title>Grupo 1</title><g><title>Trazado 1</title><path d="M99.22802,90.36951v0c0,0 -6.05679,5.5901 -6.05679,15.84033c0,12.58028 -5.1251,13.97693 -13.51197,13.97693" fill-opacity="0" fill="#ffffff" stroke-dashoffset="0" stroke-linejoin="miter" stroke-linecap="butt" stroke-opacity="1" stroke="#6cc57c" stroke-miterlimit="20" stroke-width="3.4000000953674316"></path></g><g><title>Trazado 2</title><path d="M96.43297,76.39256c0,0 -5.59179,6.52176 -16.7737,6.52176" fill-opacity="0" fill="#ffffff" stroke-dashoffset="0" stroke-linejoin="miter" stroke-linecap="butt" stroke-opacity="1" stroke="#6cc57c" stroke-miterlimit="20" stroke-width="3.4000000953674316"></path></g><g><title>Trazado 3</title><path d="M104.35314,91.30117c0,0 -11.64862,0.46499 -14.90862,-10.25021" fill-opacity="0" fill="#ffffff" stroke-dashoffset="0" stroke-linejoin="miter" stroke-linecap="butt" stroke-opacity="1" stroke="#6cc57c" stroke-miterlimit="20" stroke-width="3.4000000953674316"></path></g><g><title>Trazado 4</title><path d="M94.21264,102.33159c1.73273,1.26779 3.86953,2.01488 6.18042,2.01488c5.78864,0 10.48183,-4.69324 10.48183,-10.4836c0,-1.63519 -0.39531,-3.17117 -1.06227,-4.55043c0.57814,0.07317 1.16328,0.12541 1.76233,0.12541c7.59103,0 13.74358,-6.15436 13.74358,-13.74538c0,-8.46346 -5.1251,-13.27859 -10.09522,-14.36526c-4.31361,-0.94388 -7.29845,0 -7.29845,0v0c0,0 1.55338,-3.82426 1.55338,-6.8335c0,-6.68895 -5.42464,-12.11359 -12.11357,-12.11359c-2.01311,0 -3.9026,0.51024 -5.57263,1.37923c-1.44543,-5.35324 -6.32153,-9.2994 -12.13277,-9.2994" fill-opacity="0" fill="#ffffff" stroke-dashoffset="0" stroke-linejoin="miter" stroke-linecap="butt" stroke-opacity="1" stroke="#6cc57c" stroke-miterlimit="20" stroke-width="3.4000000953674316"></path></g><g><title>Trazado 5</title><path d="M60.09224,90.36951v0c0,0 6.05682,5.5901 6.05682,15.84033c0,12.58028 5.1251,13.97693 13.51018,13.97693" fill-opacity="0" fill="#ffffff" stroke-dashoffset="0" stroke-linejoin="miter" stroke-linecap="butt" stroke-opacity="1" stroke="#6cc57c" stroke-miterlimit="20" stroke-width="3.4000000953674316"></path></g><g><title>Trazado 6</title><path d="M62.88729,76.39256c0,0 5.59007,6.52176 16.77199,6.52176" fill-opacity="0" fill="#ffffff" stroke-dashoffset="0" stroke-linejoin="miter" stroke-linecap="butt" stroke-opacity="1" stroke="#6cc57c" stroke-miterlimit="20" stroke-width="3.4000000953674316"></path></g><g><title>Trazado 7</title><path d="M54.96714,91.30117c0,0 11.64687,0.46499 14.90862,-10.25021" fill-opacity="0" fill="#ffffff" stroke-dashoffset="0" stroke-linejoin="miter" stroke-linecap="butt" stroke-opacity="1" stroke="#6cc57c" stroke-miterlimit="20" stroke-width="3.4000000953674316"></path></g><g><title>Trazado 8</title><path d="M65.10592,102.33159c-1.73276,1.26779 -3.86777,2.01488 -6.17872,2.01488c-5.79031,0 -10.48354,-4.69324 -10.48354,-10.4836c0,-1.63519 0.3953,-3.17117 1.06405,-4.55043c-0.57817,0.07317 -1.16332,0.12541 -1.76236,0.12541c-7.59103,0 -13.74535,-6.15436 -13.74535,-13.74538c0,-8.46346 5.12512,-13.27859 10.09525,-14.36526c4.31531,-0.94388 7.30018,0 7.30018,0v0c0,0 -1.55339,-3.82426 -1.55339,-6.8335c0,-6.68895 5.4229,-12.11359 12.11357,-12.11359c2.01312,0 3.90089,0.51024 5.57094,1.37923c1.4454,-5.35324 6.32146,-9.2994 12.13271,-9.2994" fill-opacity="0" fill="#ffffff" stroke-dashoffset="0" stroke-linejoin="miter" stroke-linecap="butt" stroke-opacity="1" stroke="#6cc57c" stroke-miterlimit="20" stroke-width="3.4000000953674316"></path></g><g><title>Línea 1</title><path d="M73.29249,82.13799v11.57008" fill-opacity="0" fill="#ffffff" stroke-dashoffset="0" stroke-linejoin="miter" stroke-linecap="butt" stroke-opacity="1" stroke="#6cc57c" stroke-miterlimit="20" stroke-width="3.4000000953674316"></path></g><g><title>Línea 2</title><path d="M79.5046,82.99217v14.59848" fill-opacity="0" fill="#ffffff" stroke-dashoffset="0" stroke-linejoin="miter" stroke-linecap="butt" stroke-opacity="1" stroke="#6cc57c" stroke-miterlimit="20" stroke-width="3.4000000953674316"></path></g><g><title>Línea 3</title><path d="M85.94957,82.52633v10.94873" fill-opacity="0" fill="#ffffff" stroke-dashoffset="0" stroke-linejoin="miter" stroke-linecap="butt" stroke-opacity="1" stroke="#6cc57c" stroke-miterlimit="20" stroke-width="3.4000000953674316"></path></g></g><g><title>Trazado 9</title><path d="M74.37045,55.46371c-1.12846,-1.94523 -3.2339,-3.25479 -5.64581,-3.25479c-3.60309,0 -6.52348,2.92039 -6.52348,6.52349c0,1.19115 0.32045,2.30743 0.87769,3.26871" fill-opacity="0" fill="#ffffff" stroke-dashoffset="0" stroke-linejoin="miter" stroke-linecap="butt" stroke-opacity="1" stroke="#6cc57c" stroke-miterlimit="20" stroke-width="3.4000000953674316"></path></g><g><title>Trazado 10</title><path d="M99.56236,72.04764c0.84634,-0.6722 1.32177,-1.7641 1.15459,-2.90999c-0.25078,-1.7136 -1.84248,-2.89777 -3.55433,-2.64703c-0.56598,0.08188 -1.07449,0.31177 -1.49241,0.64436" fill-opacity="0" fill="#ffffff" stroke-dashoffset="0" stroke-linejoin="miter" stroke-linecap="butt" stroke-opacity="1" stroke="#6cc57c" stroke-miterlimit="20" stroke-width="3.4000000953674316"></path></g></g><g><title>Daietto</title><g transform="matrix(1,0,0,1,154,39)"><text dominant-baseline="text-before-edge" style="fill: #23233c; fill-opacity: 1; font-size: 61px; font-family: 'Google Sans', 'GoogleSans-Bold'; font-weight: bold; font-style: none; font-kerning: normal" ><tspan>Daietto</tspan></text></g></g><g><title>Tu app de 
dieta</title><g transform="matrix(1,0,0,1,1285,163)"><text dominant-baseline="text-before-edge" style="fill: #23233c; fill-opacity: 1; font-size: 32px; font-family: 'Google Sans', 'GoogleSans-Bold'; font-weight: bold; font-style: none; line-height: 33px; font-kerning: normal" ><tspan>Tu app de </tspan><tspan>
</tspan><tspan></tspan><tspan>dieta</tspan></text></g></g><g><title>Componente 1 – 1</title><g><title>Grupo 2485</title><g><title>Grupo 211</title><g><title>Daietto</title><g transform="matrix(1,0,0,1,490,31)"><text dominant-baseline="text-before-edge" style="fill: #6cc57c; fill-opacity: 1; font-size: 34px; font-family: 'Google Sans', 'GoogleSans-Bold'; font-weight: bold; font-style: none; line-height: 48px; font-kerning: normal" ><tspan>Daietto</tspan></text></g></g><g><title>Beneficios</title><g transform="matrix(1,0,0,1,490,92)"><text dominant-baseline="text-before-edge" style="fill: #3a466d; fill-opacity: 1; font-size: 27px; font-family: 'Google Sans', 'GoogleSans-Regular'; font-weight: normal; font-style: none; line-height: 54px; font-kerning: normal" ><tspan>Beneficios</tspan></text></g></g><g><title>Términos y condiciones</title><g transform="matrix(1,0,0,1,797,92)"><text dominant-baseline="text-before-edge" style="fill: #3a466d; fill-opacity: 1; font-size: 27px; font-family: 'Google Sans', 'GoogleSans-Regular'; font-weight: normal; font-style: none; line-height: 54px; font-kerning: normal" ><tspan>Términos y condiciones</tspan></text></g></g><g><title>Nosotros</title><g transform="matrix(1,0,0,1,797,40)"><text dominant-baseline="text-before-edge" style="fill: #3a466d; fill-opacity: 1; font-size: 27px; font-family: 'Google Sans', 'GoogleSans-Regular'; font-weight: normal; font-style: none; line-height: 54px; font-kerning: normal" ><tspan>Nosotros</tspan></text></g></g><g><title>Crédito
Contacto</title><g transform="matrix(1,0,0,1,490,144)"><text dominant-baseline="text-before-edge" style="fill: #3a466d; fill-opacity: 1; font-size: 27px; font-family: 'Google Sans', 'GoogleSans-Regular'; font-weight: normal; font-style: none; line-height: 54px; font-kerning: normal" ><tspan>Crédito</tspan><tspan>
</tspan><tspan></tspan><tspan>Contacto</tspan></text></g></g><g><title>Aviso de privacidad</title><g transform="matrix(1,0,0,1,797,144)"><text dominant-baseline="text-before-edge" style="fill: #3a466d; fill-opacity: 1; font-size: 27px; font-family: 'Google Sans', 'GoogleSans-Regular'; font-weight: normal; font-style: none; line-height: 54px; font-kerning: normal" ><tspan>Aviso de privacidad</tspan></text></g></g><g><title>© 2021 Daietto Derechos Reservados.</title><g transform="matrix(1,0,0,1,34,342)"><text dominant-baseline="text-before-edge" style="fill: #3a466d; fill-opacity: 1; font-size: 30px; font-family: 'Euclid Circular A', 'EuclidCircularA-Regular'; font-weight: normal; font-style: none; line-height: 60px; font-kerning: normal" ><tspan>© 2021 Daietto Derechos Reservados.</tspan></text></g></g></g></g><g><title>Icon awesome-instagram</title><path d="M1318.63316,63.88512c0,-3.07568 0.25473,-9.6799 -0.84911,-12.46311c-0.74533,-1.85862 -2.16995,-3.28324 -4.01912,-4.01914c-2.77375,-1.09441 -9.38737,-0.84911 -12.46303,-0.84911c-3.07566,0 -9.67984,-0.25474 -12.46303,0.84911c-1.85861,0.74533 -3.28323,2.16996 -4.01912,4.01914c-1.09441,2.77378 -0.84911,9.38743 -0.84911,12.46311c0,3.07567 -0.25473,9.67989 0.84911,12.4631c0.74533,1.85862 2.16995,3.28324 4.01912,4.01914c2.77375,1.09441 9.38737,0.84911 12.46303,0.84911c3.07566,0 9.67984,0.25474 12.46303,-0.84911c1.85861,-0.74533 3.28323,-2.16996 4.01912,-4.01914c1.10384,-2.77377 0.84911,-9.38742 0.84911,-12.4631zM1322.29378,55.16753c0.19812,3.4908 0.19812,13.94434 0,17.43514c-0.16983,3.38702 -0.94346,6.38722 -3.41531,8.85909c-2.47185,2.48131 -5.47204,3.25494 -8.85904,3.41533c-3.49078,0.19813 -13.95369,0.19813 -17.44447,0c-3.387,-0.16982 -6.37776,-0.94346 -8.85904,-3.41532c-2.48129,-2.47186 -3.25492,-5.47207 -3.41531,-8.85909c-0.19813,-3.4908 -0.19813,-13.95377 0,-17.44457c0.16983,-3.38702 0.93403,-6.38722 3.41531,-8.85909c2.48129,-2.47186 5.48147,-3.2455 8.85904,-3.40589c3.49078,-0.19813 13.95369,-0.19813 17.44447,0c3.387,0.16982 6.38718,0.94346 8.85903,3.41532c2.48129,2.47187 3.25492,5.47207 3.41531,8.85909zM1315.11408,52.60133c0,1.40576 -1.13214,2.52847 -2.52846,2.52847c-1.40575,0 -2.52846,-1.13215 -2.52846,-2.52847c0,-1.39632 1.13214,-2.52847 2.52846,-2.52847c1.39631,0 2.52846,1.13215 2.52846,2.52847zM1301.30192,70.93276c3.8776,0 7.04761,-3.16059 7.04761,-7.04765c0,-3.88706 -3.16058,-7.04765 -7.04761,-7.04765c-3.88704,0 -7.04761,3.1606 -7.04761,7.04765c0,3.88706 3.17,7.04765 7.0476,7.04765zM1312.1422,63.88512c0,6.0004 -4.83992,10.84035 -10.84029,10.84035c-6.00037,0 -10.84029,-4.83994 -10.84029,-10.84035c0,-6.00041 4.83992,-10.84036 10.84029,-10.84036c6.00037,0 10.84029,4.83996 10.84029,10.84036z" fill="#929fc7" fill-opacity="1"></path></g><g><title>Icon feather-twitter</title><path d="M1422.07298,45.84706c-1.92739,1.35954 -4.06141,2.39938 -6.31988,3.07945c-2.48295,-2.85496 -6.48419,-3.85614 -10.01908,-2.50694c-3.53489,1.3492 -5.8515,4.76178 -5.80077,8.54508v2.01272c-7.18401,0.18628 -13.9842,-3.2365 -18.11432,-9.11759c-0.00001,0 -8.05082,18.11443 10.06351,26.16529c-4.14511,2.81371 -9.08301,4.22454 -14.08892,4.02543c18.11433,10.06358 40.25406,0 40.25406,-23.14622c-0.00185,-0.56063 -0.05576,-1.11989 -0.16101,-1.67055c2.05417,-2.02581 3.50377,-4.58353 4.18642,-7.38666z" fill-opacity="0" fill="#ffffff" stroke-dashoffset="0" stroke-linejoin="round" stroke-linecap="round" stroke-opacity="1" stroke="#929fc7" stroke-miterlimit="20" stroke-width="4"></path></g><g><title>Icon awesome-facebook-f</title><path d="M1500.86602,66.6771v0l1.16476,-7.58981v0h-7.28261v0v-4.92527c0,-2.07643 1.01732,-4.10043 4.27897,-4.10043h3.3108v0v-6.46191v0c0,0 -3.00445,-0.51276 -5.87704,-0.51276c-5.99744,0 -9.91765,3.63518 -9.91765,10.21586v5.78451v0h-6.66665v0v7.58981v0h6.66665v0v18.34792v0h8.20492v0v-18.34792v0z" fill="#929fc7" fill-opacity="1"></path></g></g></g></g></svg>