<?xml version="1.0" encoding="UTF-8"?>
<svg id="SVGDoc" width="506" height="304" xmlns="http://www.w3.org/2000/svg" version="1.1" xmlns:xlink="http://www.w3.org/1999/xlink" xmlns:avocode="https://avocode.com/" viewBox="0 0 506 304"><defs><filter id="Filter1770" width="160%" height="184%" x="-20%" y="-32%" filterUnits="objectBoundingBox"><feGaussianBlur stdDeviation="21 21" result="FeGaussianBlur1771Out" in="SourceGraphic"></feGaussianBlur></filter><mask id="Mask1784" x="-1" y="-1" width="2" height="2"><rect width="394" height="192" x="76" y="37" fill="#ffffff"></rect><path d="M86,229c-5.52285,0 -10,-4.47715 -10,-10v-172c0,-5.52285 4.47715,-10 10,-10h374c5.52285,0 10,4.47715 10,10v172c0,5.52285 -4.47715,10 -10,10z" fill="#000000"></path></mask><filter id="Filter1788" width="454" height="262" x="46" y="7" filterUnits="userSpaceOnUse"><feOffset dx="0" dy="10" result="FeOffset1789Out" in="SourceGraphic"></feOffset><feGaussianBlur stdDeviation="8 8" result="FeGaussianBlur1790Out" in="FeOffset1789Out"></feGaussianBlur></filter><mask id="Mask1814" x="-1" y="-1" width="2" height="2"><rect width="46" height="46" x="70" y="189" fill="#ffffff"></rect><path d="M70,212.00004c0,-12.70255 10.29745,-23 23,-23c12.70255,0 23,10.29745 23,23c0,12.70255 -10.29745,23 -23,23c-12.70255,0 -23,-10.29745 -23,-23z" fill="#000000"></path></mask><filter id="Filter1818" width="126" height="131" x="30" y="149" filterUnits="userSpaceOnUse"><feOffset dx="0" dy="5" result="FeOffset1819Out" in="SourceGraphic"></feOffset><feGaussianBlur stdDeviation="12 12" result="FeGaussianBlur1820Out" in="FeOffset1819Out"></feGaussianBlur></filter><mask id="Mask1830" x="-1" y="-1" width="2" height="2"><rect width="17" height="17" x="85" y="204" fill="#ffffff"></rect><path d="M91.92968,205.90767l0.79288,-0.79289c0.33572,-0.33572 0.8786,-0.33572 1.21075,0l6.94307,6.93952c0.33572,0.33572 0.33572,0.87859 0,1.21075l-6.94307,6.94307c-0.33572,0.33572 -0.8786,0.33572 -1.21075,0l-0.79288,-0.79287c-0.3393,-0.33931 -0.33215,-0.89289 0.01428,-1.22504l4.30371,-4.10014v0h-10.2646c-0.47502,0 -0.85717,-0.38216 -0.85717,-0.85718v-1.14287c0,-0.47503 0.38215,-0.85718 0.85717,-0.85718h10.2646v0l-4.30371,-4.10014c-0.35001,-0.33214 -0.35715,-0.88574 -0.01428,-1.22503z" fill="#000000"></path></mask><filter id="Filter1834" width="49" height="52" x="69" y="188" filterUnits="userSpaceOnUse"><feOffset dx="0" dy="3" result="FeOffset1835Out" in="SourceGraphic"></feOffset><feGaussianBlur stdDeviation="2.4 2.4" result="FeGaussianBlur1836Out" in="FeOffset1835Out"></feGaussianBlur></filter></defs><desc>Generated with Avocode.</desc><g><g filter="url(#Filter1770)"><title>Rectángulo 33</title><path d="M66,248c-5.52285,0 -10,-4.47715 -10,-10v-172c0,-5.52285 4.47715,-10 10,-10h374c5.52285,0 10,4.47715 10,10v172c0,5.52285 -4.47715,10 -10,10z" fill="#1d2a43" fill-opacity="0.18"></path></g><g><title>Grupo 16127</title><g><title>Grupo 16126</title><g><title>Rectángulo 32</title><g filter="url(#Filter1788)"><path d="M86,229c-5.52285,0 -10,-4.47715 -10,-10v-172c0,-5.52285 4.47715,-10 10,-10h374c5.52285,0 10,4.47715 10,10v172c0,5.52285 -4.47715,10 -10,10z" fill="none" stroke-opacity="0.07" stroke-width="0" mask="url(&quot;#Mask1784&quot;)"></path><path d="M86,229c-5.52285,0 -10,-4.47715 -10,-10v-172c0,-5.52285 4.47715,-10 10,-10h374c5.52285,0 10,4.47715 10,10v172c0,5.52285 -4.47715,10 -10,10z" fill="#19166d" fill-opacity="0.07"></path></g><path d="M86,229c-5.52285,0 -10,-4.47715 -10,-10v-172c0,-5.52285 4.47715,-10 10,-10h374c5.52285,0 10,4.47715 10,10v172c0,5.52285 -4.47715,10 -10,10z" fill="#ffffff" fill-opacity="1"></path></g><g><title>Grupo 16108</title><g><title>Trazado 1942</title><path d="M358.03532,127.46169c0,-19.44929 15.76675,-35.21606 35.21601,-35.21606c19.44928,0 35.21601,15.76676 35.21601,35.21606c0,19.44925 -15.76672,35.216 -35.21601,35.216c-19.44927,0 -35.21601,-15.76674 -35.21601,-35.216zM434.24045,127.46168c0,-22.63765 -18.35146,-40.98918 -40.98912,-40.98918c-22.63766,0 -40.98912,18.35153 -40.98912,40.98918c0,22.63767 18.35145,40.98913 40.98912,40.98913c22.63765,0 40.98912,-18.35146 40.98912,-40.98913z" fill="#dcebf5" fill-opacity="1"></path></g><g><title>Intersección 1</title><path d="M412.09512,157.2169c9.84068,-6.24518 16.37206,-17.23761 16.37206,-29.75542c0,-19.44922 -15.76682,-35.21603 -35.21603,-35.21603c-8.8248,0 -16.89088,3.24553 -23.0706,8.60869l-3.45338,-4.64378c7.14888,-6.07339 16.40871,-9.73783 26.52397,-9.73783c22.63796,0 40.98949,18.35154 40.98949,40.98895c0,14.4154 -7.44073,27.09229 -18.69169,34.3998z" fill="#6cc57c" fill-opacity="1"></path></g></g><g><title>Grupo 16109</title><g><title>Elipse 12</title><g filter="url(#Filter1818)"><path d="M70,212.00004c0,-12.70255 10.29745,-23 23,-23c12.70255,0 23,10.29745 23,23c0,12.70255 -10.29745,23 -23,23c-12.70255,0 -23,-10.29745 -23,-23z" fill="none" stroke-opacity="0.31" stroke-width="0" mask="url(&quot;#Mask1814&quot;)"></path><path d="M70,212.00004c0,-12.70255 10.29745,-23 23,-23c12.70255,0 23,10.29745 23,23c0,12.70255 -10.29745,23 -23,23c-12.70255,0 -23,-10.29745 -23,-23z" fill="#081551" fill-opacity="0.31"></path></g><path d="M70,212.00004c0,-12.70255 10.29745,-23 23,-23c12.70255,0 23,10.29745 23,23c0,12.70255 -10.29745,23 -23,23c-12.70255,0 -23,-10.29745 -23,-23z" fill="#ffffff" fill-opacity="1"></path></g><g><title>arrow-right-solid</title><g filter="url(#Filter1834)"><path d="M91.92968,205.90767l0.79288,-0.79289c0.33572,-0.33572 0.8786,-0.33572 1.21075,0l6.94307,6.93952c0.33572,0.33572 0.33572,0.87859 0,1.21075l-6.94307,6.94307c-0.33572,0.33572 -0.8786,0.33572 -1.21075,0l-0.79288,-0.79287c-0.3393,-0.33931 -0.33215,-0.89289 0.01428,-1.22504l4.30371,-4.10014v0h-10.2646c-0.47502,0 -0.85717,-0.38216 -0.85717,-0.85718v-1.14287c0,-0.47503 0.38215,-0.85718 0.85717,-0.85718h10.2646v0l-4.30371,-4.10014c-0.35001,-0.33214 -0.35715,-0.88574 -0.01428,-1.22503z" fill="none" stroke-opacity="0.59" stroke-width="0" mask="url(&quot;#Mask1830&quot;)"></path><path d="M91.92968,205.90767l0.79288,-0.79289c0.33572,-0.33572 0.8786,-0.33572 1.21075,0l6.94307,6.93952c0.33572,0.33572 0.33572,0.87859 0,1.21075l-6.94307,6.94307c-0.33572,0.33572 -0.8786,0.33572 -1.21075,0l-0.79288,-0.79287c-0.3393,-0.33931 -0.33215,-0.89289 0.01428,-1.22504l4.30371,-4.10014v0h-10.2646c-0.47502,0 -0.85717,-0.38216 -0.85717,-0.85718v-1.14287c0,-0.47503 0.38215,-0.85718 0.85717,-0.85718h10.2646v0l-4.30371,-4.10014c-0.35001,-0.33214 -0.35715,-0.88574 -0.01428,-1.22503z" fill="#ffffff" fill-opacity="0.59"></path></g><path d="M91.92968,205.90767l0.79288,-0.79289c0.33572,-0.33572 0.8786,-0.33572 1.21075,0l6.94307,6.93952c0.33572,0.33572 0.33572,0.87859 0,1.21075l-6.94307,6.94307c-0.33572,0.33572 -0.8786,0.33572 -1.21075,0l-0.79288,-0.79287c-0.3393,-0.33931 -0.33215,-0.89289 0.01428,-1.22504l4.30371,-4.10014v0h-10.2646c-0.47502,0 -0.85717,-0.38216 -0.85717,-0.85718v-1.14287c0,-0.47503 0.38215,-0.85718 0.85717,-0.85718h10.2646v0l-4.30371,-4.10014c-0.35001,-0.33214 -0.35715,-0.88574 -0.01428,-1.22503z" fill="#404040" fill-opacity="1"></path></g></g><g><title>Elipse 55</title><path d="M427,60.5c0,-1.38071 1.11929,-2.5 2.5,-2.5c1.38071,0 2.5,1.11929 2.5,2.5c0,1.38071 -1.11929,2.5 -2.5,2.5c-1.38071,0 -2.5,-1.11929 -2.5,-2.5z" fill="#7f8da0" fill-opacity="1"></path></g><g><title>Elipse 56</title><path d="M436,60.5c0,-1.38071 1.11929,-2.5 2.5,-2.5c1.38071,0 2.5,1.11929 2.5,2.5c0,1.38071 -1.11929,2.5 -2.5,2.5c-1.38071,0 -2.5,-1.11929 -2.5,-2.5z" fill="#7f8da0" fill-opacity="1"></path></g></g></g></g></svg>