<svg id="SvgjsSvg103753" width="31" height="36" xmlns="http://www.w3.org/2000/svg" version="1.1" xmlns:xlink="http://www.w3.org/1999/xlink" xmlns:svgjs="http://svgjs.com/svgjs" viewBox="618 755 31 36"><defs id="SvgjsDefs103754"></defs><svg id="SvgjsSvg103755" width="6" height="14" xmlns="http://www.w3.org/2000/svg" version="1.1" xmlns:xlink="http://www.w3.org/1999/xlink" xmlns:svgjs="http://svgjs.com/svgjs" viewBox="0 0 6 14" fill="#6cc57c" opacity="1" x="618" y="766"><defs id="SvgjsDefs103756"></defs><svg version="1.1" xmlns="http://www.w3.org/2000/svg" xmlns:xlink="http://www.w3.org/1999/xlink" width="6" height="14"><g><path fill="#6cc57c" stroke="none" paint-order="stroke fill markers" fill-rule="evenodd" d=" M 2.8477542400360107 0.468048095703125 C 2.240349769592285 0.468048095703125 1.7249372005462646 0.6799426078796387 1.3013732433319092 1.103433609008789 C 0.8776659965515137 1.5272226333618164 0.6657407283782959 2.0356502532958984 0.6657407283782959 2.628716468811035 C 0.6657407283782959 2.628716468811035 0.6657407283782959 11.738988399505615 0.6657407283782959 11.738988399505615 C 0.6657407283782959 12.347253799438477 0.8775227069854736 12.862237930297852 1.3013732433319092 13.286026954650879 C 1.7249372005462646 13.70951795578003 2.240349769592285 13.921412467956543 2.8477542400360107 13.921412467956543 C 3.454728841781616 13.921412467956543 3.966989040374756 13.70951795578003 4.38410496711731 13.286026954650879 C 4.800361156463623 12.862237930297852 5.00913405418396 12.347253799438477 5.00913405418396 11.738988399505615 C 5.00913405418396 11.738988399505615 5.00913405418396 2.628716468811035 5.00913405418396 2.628716468811035 C 5.00913405418396 2.0353522300720215 4.797208786010742 1.5272226333618164 4.373501539230347 1.103433609008789 C 3.949794292449951 0.6799426078796387 3.4411163330078125 0.468048095703125 2.8477542400360107 0.468048095703125 Z"></path></g></svg></svg><svg id="SvgjsSvg103759" width="21" height="12" xmlns="http://www.w3.org/2000/svg" version="1.1" xmlns:xlink="http://www.w3.org/1999/xlink" xmlns:svgjs="http://svgjs.com/svgjs" viewBox="0 0 21 12" fill="#6cc57c" opacity="1" x="623" y="755"><defs id="SvgjsDefs103760"></defs><svg version="1.1" xmlns="http://www.w3.org/2000/svg" xmlns:xlink="http://www.w3.org/1999/xlink" width="21" height="12"><g><path fill="#6cc57c" stroke="none" paint-order="stroke fill markers" fill-rule="evenodd" d=" M 15.390552520751953 3.2896947860717773 C 15.390552520751953 3.2896947860717773 16.894806385040283 0.5148005485534668 16.894806385040283 0.5148005485534668 C 16.99353289604187 0.33121824264526367 16.95842695236206 0.19025325775146484 16.789058685302734 0.0913095474243164 C 16.605218172073364 0.005776882171630859 16.464077949523926 0.04899024963378906 16.36535143852234 0.21796941757202148 C 16.36535143852234 0.21796941757202148 14.840034008026123 3.0152153968811035 14.840034008026123 3.0152153968811035 C 13.497983932495117 2.42185115814209 12.07841420173645 2.1244239807128906 10.581468105316162 2.1244239807128906 C 9.084235429763794 2.1244239807128906 7.664522409439087 2.42185115814209 6.322902202606201 3.0152153968811035 C 6.322902202606201 3.0152153968811035 4.797441482543945 0.21796941757202148 4.797441482543945 0.21796941757202148 C 4.698285102844238 0.04899024963378906 4.5571448802948 0.0060749053955078125 4.37387752532959 0.0913095474243164 C 4.2040793895721436 0.1905512809753418 4.168973445892334 0.33121824264526367 4.268129825592041 0.5148005485534668 C 4.268129825592041 0.5148005485534668 5.772526979446411 3.2896947860717773 5.772526979446411 3.2896947860717773 C 4.247066259384155 4.067833423614502 3.032257318496704 5.151147842407227 2.1282434463500977 6.542320251464844 C 1.2243728637695312 7.934088706970215 0.772294282913208 9.455199241638184 0.772294282913208 11.108334064483643 C 0.772294282913208 11.108334064483643 20.36929178237915 11.108334064483643 20.36929178237915 11.108334064483643 C 20.36929178237915 9.455795288085938 19.917213201522827 7.934386730194092 19.01334261894226 6.542320251464844 C 18.109328746795654 5.151147842407227 16.901397705078125 4.067833423614502 15.390552520751953 3.2896947860717773 Z M 6.693449020385742 7.3261213302612305 C 6.530815362930298 7.489140033721924 6.336514711380005 7.570202350616455 6.110690355300903 7.570202350616455 C 5.884292840957642 7.570202350616455 5.69400429725647 7.489140033721924 5.538678407669067 7.3261213302612305 C 5.383352518081665 7.163698673248291 5.305689573287964 6.970281600952148 5.305689573287964 6.743485927581787 C 5.305689573287964 6.517882347106934 5.383352518081665 6.323869228363037 5.538678407669067 6.161148548126221 C 5.69400429725647 5.999023914337158 5.884722709655762 5.91766357421875 6.110690355300903 5.91766357421875 C 6.336514711380005 5.91766357421875 6.530815362930298 5.999023914337158 6.693449020385742 6.161148548126221 C 6.8557960987091064 6.324167251586914 6.937327861785889 6.517882347106934 6.937327861785889 6.743485927581787 C 6.9368979930877686 6.9699835777282715 6.855366230010986 7.163698673248291 6.693449020385742 7.3261213302612305 Z M 15.623398065567017 7.3261213302612305 C 15.467785596847534 7.489140033721924 15.276923894882202 7.570202350616455 15.05152940750122 7.570202350616455 C 14.825131893157959 7.570202350616455 14.630831241607666 7.489140033721924 14.468484163284302 7.3261213302612305 C 14.305850505828857 7.163698673248291 14.224748611450195 6.970281600952148 14.224748611450195 6.743485927581787 C 14.224748611450195 6.517882347106934 14.305850505828857 6.323869228363037 14.468484163284302 6.161148548126221 C 14.630831241607666 5.999023914337158 14.825131893157959 5.91766357421875 15.05152940750122 5.91766357421875 C 15.277353763580322 5.91766357421875 15.467642307281494 5.999023914337158 15.623398065567017 6.161148548126221 C 15.778723955154419 6.324167251586914 15.85624361038208 6.517882347106934 15.85624361038208 6.743485927581787 C 15.85624361038208 6.9699835777282715 15.778723955154419 7.163698673248291 15.623398065567017 7.3261213302612305 Z"></path></g></svg></svg><svg id="SvgjsSvg103763" width="21" height="25" xmlns="http://www.w3.org/2000/svg" version="1.1" xmlns:xlink="http://www.w3.org/1999/xlink" xmlns:svgjs="http://svgjs.com/svgjs" viewBox="0 0 21 25" fill="#6cc57c" opacity="1" x="623" y="766"><defs id="SvgjsDefs103764"></defs><svg version="1.1" xmlns="http://www.w3.org/2000/svg" xmlns:xlink="http://www.w3.org/1999/xlink" width="21" height="25"><g><path fill="#6cc57c" stroke="none" paint-order="stroke fill markers" fill-rule="evenodd" d=" M 0.8564052581787109 14.980587005615234 C 0.8564052581787109 15.630873680114746 1.0822296142578125 16.181620597839355 1.5340216159820557 16.63312578201294 C 1.986100196838379 17.0849289894104 2.536618709564209 17.31083059310913 3.186580181121826 17.31083059310913 C 3.186580181121826 17.31083059310913 4.754454612731934 17.31083059310913 4.754454612731934 17.31083059310913 C 4.754454612731934 17.31083059310913 4.7759480476379395 22.120627403259277 4.7759480476379395 22.120627403259277 C 4.7759480476379395 22.727998733520508 4.987730026245117 23.243876934051514 5.411437273025513 23.66766595840454 C 5.835001230239868 24.09115695953369 6.343822479248047 24.303051471710205 6.9367547035217285 24.303051471710205 C 7.543872594833374 24.303051471710205 8.059571743011475 24.09115695953369 8.48327898979187 23.66766595840454 C 8.906986236572266 23.243876934051514 9.118768215179443 22.727998733520508 9.118768215179443 22.120627403259277 C 9.118768215179443 22.120627403259277 9.118768215179443 17.311426639556885 9.118768215179443 17.311426639556885 C 9.118768215179443 17.311426639556885 12.0424485206604 17.311426639556885 12.0424485206604 17.311426639556885 C 12.0424485206604 17.311426639556885 12.0424485206604 22.120627403259277 12.0424485206604 22.120627403259277 C 12.0424485206604 22.727998733520508 12.254230499267578 23.243876934051514 12.677937746047974 23.66766595840454 C 13.10164499282837 24.09115695953369 13.61691427230835 24.303051471710205 14.224318742752075 24.303051471710205 C 14.83143663406372 24.303051471710205 15.347135782241821 24.09115695953369 15.770843029022217 23.66766595840454 C 16.194550275802612 23.243876934051514 16.40633225440979 22.727998733520508 16.40633225440979 22.120627403259277 C 16.40633225440979 22.120627403259277 16.40633225440979 17.311426639556885 16.40633225440979 17.311426639556885 C 16.40633225440979 17.311426639556885 17.995413541793823 17.311426639556885 17.995413541793823 17.311426639556885 C 18.630902767181396 17.311426639556885 19.174256801605225 17.085227012634277 19.626908540725708 16.633721828460693 C 20.07855725288391 16.181918621063232 20.304524898529053 15.6314697265625 20.304524898529053 14.981183052062988 C 20.304524898529053 14.981183052062988 20.304524898529053 0.8700814247131348 20.304524898529053 0.8700814247131348 C 20.304524898529053 0.8700814247131348 0.8564052581787109 0.8700814247131348 0.8564052581787109 0.8700814247131348 C 0.8564052581787109 0.8700814247131348 0.8564052581787109 14.980587005615234 0.8564052581787109 14.980587005615234 Z"></path></g></svg></svg><svg id="SvgjsSvg103767" width="5" height="14" xmlns="http://www.w3.org/2000/svg" version="1.1" xmlns:xlink="http://www.w3.org/1999/xlink" xmlns:svgjs="http://svgjs.com/svgjs" viewBox="0 0 5 14" fill="#6cc57c" opacity="1" x="644" y="766"><defs id="SvgjsDefs103768"></defs><svg version="1.1" xmlns="http://www.w3.org/2000/svg" xmlns:xlink="http://www.w3.org/1999/xlink" width="5" height="14"><g><path fill="#6cc57c" stroke="none" paint-order="stroke fill markers" fill-rule="evenodd" d=" M 2.314178943634033 0.468048095703125 C 1.7208168506622314 0.468048095703125 1.212568759918213 0.6766643524169922 0.7888615131378174 1.0930027961730957 C 0.3651542663574219 1.5099372863769531 0.15337228775024414 2.0222392082214355 0.15337228775024414 2.628716468811035 C 0.15337228775024414 2.628716468811035 0.15337228775024414 11.738988399505615 0.15337228775024414 11.738988399505615 C 0.15337228775024414 12.347253799438477 0.36501097679138184 12.862237930297852 0.7888615131378174 13.286026954650879 C 1.212568759918213 13.70951795578003 1.7212467193603516 13.921412467956543 2.314178943634033 13.921412467956543 C 2.9212968349456787 13.921412467956543 3.4369959831237793 13.70951795578003 3.860703229904175 13.286026954650879 C 4.28441047668457 12.862237930297852 4.496192455291748 12.347253799438477 4.496192455291748 11.738988399505615 C 4.496192455291748 11.738988399505615 4.496192455291748 2.628716468811035 4.496192455291748 2.628716468811035 C 4.496192455291748 2.0222392082214355 4.28441047668457 1.5099372863769531 3.860703229904175 1.0930027961730957 C 3.4369959831237793 0.6766643524169922 2.9212968349456787 0.468048095703125 2.314178943634033 0.468048095703125 Z"></path></g></svg></svg></svg>