<?xml version="1.0" encoding="UTF-8"?>
<svg id="SVGDoc" width="43" height="43" xmlns="http://www.w3.org/2000/svg" version="1.1" xmlns:xlink="http://www.w3.org/1999/xlink" xmlns:avocode="https://avocode.com/" viewBox="0 0 43 43"><defs></defs><desc>Generated with Avocode.</desc><g><g><title>Icon awesome-instagram</title><path d="M38.63316,21.88512c0,-3.07568 0.25473,-9.6799 -0.84911,-12.46311c-0.74533,-1.85862 -2.16995,-3.28324 -4.01912,-4.01914c-2.77375,-1.09441 -9.38737,-0.84911 -12.46303,-0.84911c-3.07566,0 -9.67984,-0.25474 -12.46303,0.84911c-1.85861,0.74533 -3.28323,2.16996 -4.01912,4.01914c-1.09441,2.77378 -0.84911,9.38743 -0.84911,12.46311c0,3.07567 -0.25473,9.67989 0.84911,12.4631c0.74533,1.85862 2.16995,3.28324 4.01912,4.01914c2.77375,1.09441 9.38737,0.84911 12.46303,0.84911c3.07566,0 9.67984,0.25474 12.46303,-0.84911c1.85861,-0.74533 3.28323,-2.16996 4.01912,-4.01914c1.10384,-2.77377 0.84911,-9.38742 0.84911,-12.4631zM42.29378,13.16753c0.19812,3.4908 0.19812,13.94434 0,17.43514c-0.16983,3.38702 -0.94346,6.38722 -3.41531,8.85909c-2.47185,2.48131 -5.47204,3.25494 -8.85904,3.41533c-3.49078,0.19813 -13.95369,0.19813 -17.44447,0c-3.387,-0.16982 -6.37776,-0.94346 -8.85904,-3.41532c-2.48129,-2.47186 -3.25492,-5.47207 -3.41531,-8.85909c-0.19813,-3.4908 -0.19813,-13.95377 0,-17.44457c0.16983,-3.38702 0.93403,-6.38722 3.41531,-8.85909c2.48129,-2.47186 5.48147,-3.2455 8.85904,-3.40589c3.49078,-0.19813 13.95369,-0.19813 17.44447,0c3.387,0.16982 6.38718,0.94346 8.85903,3.41532c2.48129,2.47187 3.25492,5.47207 3.41531,8.85909zM35.11408,10.60133c0,1.40576 -1.13214,2.52847 -2.52846,2.52847c-1.40575,0 -2.52846,-1.13215 -2.52846,-2.52847c0,-1.39632 1.13214,-2.52847 2.52846,-2.52847c1.39631,0 2.52846,1.13215 2.52846,2.52847zM21.30192,28.93276c3.8776,0 7.04761,-3.16059 7.04761,-7.04765c0,-3.88706 -3.16058,-7.04765 -7.04761,-7.04765c-3.88704,0 -7.04761,3.1606 -7.04761,7.04765c0,3.88706 3.17,7.04765 7.0476,7.04765zM32.1422,21.88512c0,6.0004 -4.83992,10.84035 -10.84029,10.84035c-6.00037,0 -10.84029,-4.83994 -10.84029,-10.84035c0,-6.00041 4.83992,-10.84036 10.84029,-10.84036c6.00037,0 10.84029,4.83996 10.84029,10.84036z" fill="#929fc7" fill-opacity="1"></path></g></g></svg>