<?xml version="1.0" encoding="UTF-8"?>
<svg id="SVGDoc" width="429" height="199" xmlns="http://www.w3.org/2000/svg" version="1.1" xmlns:xlink="http://www.w3.org/1999/xlink" xmlns:avocode="https://avocode.com/" viewBox="0 0 429 199"><defs><filter id="Filter1047" width="164%" height="220%" x="-22%" y="-50%" filterUnits="objectBoundingBox"><feGaussianBlur stdDeviation="21 21" result="FeGaussianBlur1048Out" in="SourceGraphic"></feGaussianBlur></filter><mask id="Mask1059" x="-1" y="-1" width="2" height="2"><rect width="322" height="103" x="93" y="32" fill="#ffffff"></rect><path d="M103,135c-5.52285,0 -10,-4.47715 -10,-10v-83c0,-5.52285 4.47715,-10 10,-10h302c5.52285,0 10,4.47715 10,10v83c0,5.52285 -4.47715,10 -10,10z" fill="#000000"></path></mask><filter id="Filter1063" width="382" height="173" x="63" y="2" filterUnits="userSpaceOnUse"><feOffset dx="0" dy="10" result="FeOffset1064Out" in="SourceGraphic"></feOffset><feGaussianBlur stdDeviation="8 8" result="FeGaussianBlur1065Out" in="FeOffset1064Out"></feGaussianBlur></filter></defs><desc>Generated with Avocode.</desc><g><g><title>Grupo 16129</title><g opacity="0.52" filter="url(#Filter1047)"><title>Rectángulo 96</title><path d="M56,153c-5.52285,0 -10,-4.47715 -10,-10v-87c0,-5.52285 4.47715,-10 10,-10h310c5.52285,0 10,4.47715 10,10v87c0,5.52285 -4.47715,10 -10,10z" fill="#1d2a43" fill-opacity="0.18"></path></g><g><title>Grupo 16128</title><g><title>Rectángulo 95</title><g filter="url(#Filter1063)"><path d="M103,135c-5.52285,0 -10,-4.47715 -10,-10v-83c0,-5.52285 4.47715,-10 10,-10h302c5.52285,0 10,4.47715 10,10v83c0,5.52285 -4.47715,10 -10,10z" fill="none" stroke-opacity="0.07" stroke-width="0" mask="url(&quot;#Mask1059&quot;)"></path><path d="M103,135c-5.52285,0 -10,-4.47715 -10,-10v-83c0,-5.52285 4.47715,-10 10,-10h302c5.52285,0 10,4.47715 10,10v83c0,5.52285 -4.47715,10 -10,10z" fill="#19166d" fill-opacity="0.07"></path></g><path d="M103,135c-5.52285,0 -10,-4.47715 -10,-10v-83c0,-5.52285 4.47715,-10 10,-10h302c5.52285,0 10,4.47715 10,10v83c0,5.52285 -4.47715,10 -10,10z" fill="#ffffff" fill-opacity="1"></path></g><g><title>Grupo 16116</title><g><title>243</title><g transform="matrix(1,0,0,1,-1125,-222)"><text dominant-baseline="text-before-edge" style="fill: #ee6a6e; fill-opacity: 1; font-size: 19px; font-family: 'Google Sans', 'GoogleSans-Bold'; font-weight: bold; font-style: none; font-kerning: normal" ><tspan>243</tspan></text></g></g><g><title>2,8g</title><g transform="matrix(1,0,0,1,-1125,-222)"><text dominant-baseline="text-before-edge" style="fill: #23233c; fill-opacity: 1; font-size: 19px; font-family: 'Google Sans', 'GoogleSans-Bold'; font-weight: bold; font-style: none; font-kerning: normal" ><tspan>2,8g</tspan></text></g></g><g><title>45,7g</title><g transform="matrix(1,0,0,1,-1125,-222)"><text dominant-baseline="text-before-edge" style="fill: #23233c; fill-opacity: 1; font-size: 19px; font-family: 'Google Sans', 'GoogleSans-Bold'; font-weight: bold; font-style: none; font-kerning: normal" ><tspan>45,7g</tspan></text></g></g><g><title>9,8g</title><g transform="matrix(1,0,0,1,-1125,-222)"><text dominant-baseline="text-before-edge" style="fill: #23233c; fill-opacity: 1; font-size: 19px; font-family: 'Google Sans', 'GoogleSans-Bold'; font-weight: bold; font-style: none; font-kerning: normal" ><tspan>9,8g</tspan></text></g></g><g><title>calorias</title><g transform="matrix(1,0,0,1,-1125,-222)"><text dominant-baseline="text-before-edge" style="fill: #9e9e9e; fill-opacity: 1; font-size: 7px; font-family: 'Google Sans', 'GoogleSans-Regular'; font-weight: normal; font-style: none; font-kerning: normal" ><tspan>calorias</tspan></text></g></g><g><title>grasas</title><g transform="matrix(1,0,0,1,-1125,-222)"><text dominant-baseline="text-before-edge" style="fill: #9e9e9e; fill-opacity: 1; font-size: 7px; font-family: 'Google Sans', 'GoogleSans-Regular'; font-weight: normal; font-style: none; font-kerning: normal" ><tspan>grasas</tspan></text></g></g><g><title>carbohid.</title><g transform="matrix(1,0,0,1,-1125,-222)"><text dominant-baseline="text-before-edge" style="fill: #9e9e9e; fill-opacity: 1; font-size: 7px; font-family: 'Google Sans', 'GoogleSans-Regular'; font-weight: normal; font-style: none; font-kerning: normal" ><tspan>carbohid.</tspan></text></g></g><g><title>proteinas</title><g transform="matrix(1,0,0,1,-1125,-222)"><text dominant-baseline="text-before-edge" style="fill: #9e9e9e; fill-opacity: 1; font-size: 7px; font-family: 'Google Sans', 'GoogleSans-Regular'; font-weight: normal; font-style: none; font-kerning: normal" ><tspan>proteinas</tspan></text></g></g></g><g><title>Nutritional information</title><g transform="matrix(1,0,0,1,-1125,-222)"><text dominant-baseline="text-before-edge" style="fill: #23233c; fill-opacity: 1; font-size: 13px; font-family: 'Google Sans', 'GoogleSans-Medium'; line-height: 24px; font-kerning: normal" ><tspan>Nutritional information</tspan></text></g></g></g></g></g></svg>