<svg xmlns="http://www.w3.org/2000/svg" width="350" height="131" viewBox="0 0 350 131"><defs><mask id="sjajb" width="2" height="2" x="-1" y="-1"><path fill="#fff" d="M14 4h322v103H14z"/><path d="M24 107c-5.523 0-10-4.477-10-10V14c0-5.523 4.477-10 10-10h302c5.523 0 10 4.477 10 10v83c0 5.523-4.477 10-10 10z"/></mask><filter id="sjaja" width="382" height="173" x="-16" y="-26" filterUnits="userSpaceOnUse"><feOffset dy="10" in="SourceGraphic" result="FeOffset1107Out"/><feGaussianBlur in="FeOffset1107Out" result="FeGaussianBlur1108Out" stdDeviation="8 8"/></filter></defs><g><g><g filter="url(#sjaja)"><path fill="none" d="M24 107c-5.523 0-10-4.477-10-10V14c0-5.523 4.477-10 10-10h302c5.523 0 10 4.477 10 10v83c0 5.523-4.477 10-10 10z" mask="url(&quot;#sjajb&quot;)"/><path fill="#19166d" fill-opacity=".07" d="M24 107c-5.523 0-10-4.477-10-10V14c0-5.523 4.477-10 10-10h302c5.523 0 10 4.477 10 10v83c0 5.523-4.477 10-10 10z"/></g><path fill="#fff" d="M24 107c-5.523 0-10-4.477-10-10V14c0-5.523 4.477-10 10-10h302c5.523 0 10 4.477 10 10v83c0 5.523-4.477 10-10 10z"/></g></g></svg>