<svg xmlns="http://www.w3.org/2000/svg" width="422" height="220" viewBox="0 0 422 220"><defs><mask id="a8zrb" width="2" height="2" x="-1" y="-1"><path fill="#fff" d="M14 4h394v192H14z"/><path d="M24 196c-5.523 0-10-4.477-10-10V14c0-5.523 4.477-10 10-10h374c5.523 0 10 4.477 10 10v172c0 5.523-4.477 10-10 10z"/></mask><filter id="a8zra" width="454" height="262" x="-16" y="-26" filterUnits="userSpaceOnUse"><feOffset dy="10" in="SourceGraphic" result="FeOffset1127Out"/><feGaussianBlur in="FeOffset1127Out" result="FeGaussianBlur1128Out" stdDeviation="8 8"/></filter></defs><g><g><g filter="url(#a8zra)"><path fill="none" d="M24 196c-5.523 0-10-4.477-10-10V14c0-5.523 4.477-10 10-10h374c5.523 0 10 4.477 10 10v172c0 5.523-4.477 10-10 10z" mask="url(&quot;#a8zrb&quot;)"/><path fill="#19166d" fill-opacity=".07" d="M24 196c-5.523 0-10-4.477-10-10V14c0-5.523 4.477-10 10-10h374c5.523 0 10 4.477 10 10v172c0 5.523-4.477 10-10 10z"/></g><path fill="#fff" d="M24 196c-5.523 0-10-4.477-10-10V14c0-5.523 4.477-10 10-10h374c5.523 0 10 4.477 10 10v172c0 5.523-4.477 10-10 10z"/></g></g></svg>