<?xml version="1.0" encoding="UTF-8"?>
<svg id="SVGDoc" width="1044" height="1064" xmlns="http://www.w3.org/2000/svg" version="1.1" xmlns:xlink="http://www.w3.org/1999/xlink" xmlns:avocode="https://avocode.com/" viewBox="0 0 1044 1064"><defs><mask id="Mask1018" x="-1" y="-1" width="2" height="2"><rect width="944" height="964" x="0" y="0" fill="#ffffff"></rect><path d="M150.30046,871.20288c-27.06195,0 -49,-21.93805 -49,-49v-679.99998c0,-27.06195 21.93805,-49 49,-49h643.99998c27.06195,0 49,21.93805 49,49v679.99998c0,27.06195 -21.93805,49 -49,49z" fill="#000000"></path></mask><filter id="Filter1022" width="1092.76062319006" height="1148.5974190948787" x="-60" y="-60" filterUnits="userSpaceOnUse"><feOffset dx="28.76062319005996" dy="64.59741909487866" result="FeOffset1023Out" in="SourceGraphic"></feOffset><feGaussianBlur stdDeviation="20 20" result="FeGaussianBlur1024Out" in="FeOffset1023Out"></feGaussianBlur></filter><linearGradient id="LinearGradient1025" gradientUnits="userSpaceOnUse" x1="726.3399999999999" y1="325.6300000000001" x2="147.47000000000003" y2="843.94"><stop stop-opacity="1" stop-color="#f2f6ff" offset="0"></stop><stop stop-opacity="1" stop-color="#f2f6ff" offset="0.74"></stop><stop stop-opacity="1" stop-color="#ffffff" offset="1"></stop></linearGradient></defs><desc>Generated with Avocode.</desc><g><g transform="rotate(-21.000000583211836 472 482)"><title>Rectángulo 99</title><g filter="url(#Filter1022)"><path d="M150.30046,871.20288c-27.06195,0 -49,-21.93805 -49,-49v-679.99998c0,-27.06195 21.93805,-49 49,-49h643.99998c27.06195,0 49,21.93805 49,49v679.99998c0,27.06195 -21.93805,49 -49,49z" fill="none" stroke-opacity="0.2" stroke-width="0" mask="url(&quot;#Mask1018&quot;)"></path><path d="M150.30046,871.20288c-27.06195,0 -49,-21.93805 -49,-49v-679.99998c0,-27.06195 21.93805,-49 49,-49h643.99998c27.06195,0 49,21.93805 49,49v679.99998c0,27.06195 -21.93805,49 -49,49z" fill="#abb6cc" fill-opacity="0.2"></path></g><path d="M150.30046,871.20288c-27.06195,0 -49,-21.93805 -49,-49v-679.99998c0,-27.06195 21.93805,-49 49,-49h643.99998c27.06195,0 49,21.93805 49,49v679.99998c0,27.06195 -21.93805,49 -49,49z" fill="url(#LinearGradient1025)"></path></g></g></svg>