<?xml version="1.0" encoding="UTF-8"?>
<svg id="SVGDoc" width="1016" height="988" xmlns="http://www.w3.org/2000/svg" version="1.1" xmlns:xlink="http://www.w3.org/1999/xlink" xmlns:avocode="https://avocode.com/" viewBox="0 0 1016 988"><defs><mask id="Mask1018" x="-1" y="-1" width="2" height="2"><rect width="916" height="888" x="0" y="0" fill="#ffffff"></rect><path d="M135.99998,744.99994c-27.06195,0 -49,-21.93805 -49,-49v-503.99999c0,-27.06195 21.93805,-49 49,-49h643.99999c27.06195,0 49,21.93805 49,49v503.99999c0,27.06195 -21.93805,49 -49,49z" fill="#000000"></path></mask><filter id="Filter1022" width="1106.0225269921768" height="1017.8410219809668" x="-60" y="-60" filterUnits="userSpaceOnUse"><feOffset dx="70.02252699217684" dy="9.841021980966843" result="FeOffset1023Out" in="SourceGraphic"></feOffset><feGaussianBlur stdDeviation="20 20" result="FeGaussianBlur1024Out" in="FeOffset1023Out"></feGaussianBlur></filter><linearGradient id="LinearGradient1025" gradientUnits="userSpaceOnUse" x1="712.04" y1="322.8499999999999" x2="133.16999999999996" y2="723.9099999999999"><stop stop-opacity="1" stop-color="#f2f6ff" offset="0"></stop><stop stop-opacity="1" stop-color="#f2f6ff" offset="0.74"></stop><stop stop-opacity="1" stop-color="#ffffff" offset="1"></stop></linearGradient></defs><desc>Generated with Avocode.</desc><g><g transform="rotate(37.00000193417059 458 444)"><title>Rectángulo 102</title><g filter="url(#Filter1022)"><path d="M135.99998,744.99994c-27.06195,0 -49,-21.93805 -49,-49v-503.99999c0,-27.06195 21.93805,-49 49,-49h643.99999c27.06195,0 49,21.93805 49,49v503.99999c0,27.06195 -21.93805,49 -49,49z" fill="none" stroke-opacity="0.2" stroke-width="0" mask="url(&quot;#Mask1018&quot;)"></path><path d="M135.99998,744.99994c-27.06195,0 -49,-21.93805 -49,-49v-503.99999c0,-27.06195 21.93805,-49 49,-49h643.99999c27.06195,0 49,21.93805 49,49v503.99999c0,27.06195 -21.93805,49 -49,49z" fill="#abb6cc" fill-opacity="0.2"></path></g><path d="M135.99998,744.99994c-27.06195,0 -49,-21.93805 -49,-49v-503.99999c0,-27.06195 21.93805,-49 49,-49h643.99999c27.06195,0 49,21.93805 49,49v503.99999c0,27.06195 -21.93805,49 -49,49z" fill="url(#LinearGradient1025)"></path></g></g></svg>